<?xml version="1.0" encoding="UTF-8"?><svg xmlns="http://www.w3.org/2000/svg" xmlns:xlink="http://www.w3.org/1999/xlink" fill-opacity="1" color-rendering="auto" color-interpolation="auto" text-rendering="auto" stroke="black" stroke-linecap="square" width="437" stroke-miterlimit="10" shape-rendering="auto" stroke-opacity="1" fill="black" stroke-dasharray="none" font-weight="normal" stroke-width="1" height="448" font-family="'Dialog'" font-style="normal" stroke-linejoin="miter" font-size="12px" stroke-dashoffset="0" image-rendering="auto">
  <!--Generated by ySVG 2.5-->
  <defs id="genericDefs"/>
  <g>
    <defs id="defs1">
      <clipPath clipPathUnits="userSpaceOnUse" id="clipPath1">
        <path d="M0 0 L437 0 L437 448 L0 448 L0 0 Z"/>
      </clipPath>
      <clipPath clipPathUnits="userSpaceOnUse" id="clipPath2">
        <path d="M118 -146 L555 -146 L555 302 L118 302 L118 -146 Z"/>
      </clipPath>
      <clipPath clipPathUnits="userSpaceOnUse" id="clipPath3">
        <path d="M-312.0879 207.2773 L-312.0879 -229.7227 L135.9121 -229.7227 L135.9121 207.2773 L-312.0879 207.2773 Z"/>
      </clipPath>
      <clipPath clipPathUnits="userSpaceOnUse" id="clipPath4">
        <path d="M-222.5879 381.2773 L-222.5879 -55.7227 L225.4121 -55.7227 L225.4121 381.2773 L-222.5879 381.2773 Z"/>
      </clipPath>
      <clipPath clipPathUnits="userSpaceOnUse" id="clipPath5">
        <path d="M-312.0879 91.2773 L-312.0879 -345.7227 L135.9121 -345.7227 L135.9121 91.2773 L-312.0879 91.2773 Z"/>
      </clipPath>
    </defs>
    <g fill="white" text-rendering="geometricPrecision" shape-rendering="geometricPrecision" transform="translate(-118,146)" stroke="white">
      <rect x="118" width="437" height="448" y="-146" clip-path="url(#clipPath2)" stroke="none"/>
    </g>
    <g fill="rgb(204,204,204)" text-rendering="geometricPrecision" shape-rendering="geometricPrecision" transform="matrix(1,0,0,1,-118,146)" stroke="rgb(204,204,204)">
      <rect x="249.5" width="116" height="392" y="-105.5" clip-path="url(#clipPath2)" stroke="none"/>
    </g>
    <g text-rendering="geometricPrecision" stroke-miterlimit="1.45" shape-rendering="geometricPrecision" transform="matrix(1,0,0,1,-118,146)" stroke-linecap="butt">
      <rect fill="none" x="249.5" width="116" height="392" y="-105.5" clip-path="url(#clipPath2)"/>
    </g>
    <g fill="white" text-rendering="geometricPrecision" shape-rendering="geometricPrecision" transform="matrix(1,0,0,1,-118,146)" stroke="white">
      <rect x="269" y="-92.5" clip-path="url(#clipPath2)" width="75" rx="4" ry="4" height="75" stroke="none"/>
    </g>
    <g text-rendering="geometricPrecision" stroke-miterlimit="1.45" shape-rendering="geometricPrecision" transform="matrix(1,0,0,1,-118,146)" stroke-linecap="butt">
      <rect x="269" y="-92.5" clip-path="url(#clipPath2)" fill="none" width="75" rx="4" ry="4" height="75"/>
    </g>
    <g fill="white" text-rendering="geometricPrecision" shape-rendering="geometricPrecision" transform="matrix(1,0,0,1,-118,146)" stroke="white">
      <rect x="269" y="-7" clip-path="url(#clipPath2)" width="75" rx="4" ry="4" height="75" stroke="none"/>
    </g>
    <g text-rendering="geometricPrecision" stroke-miterlimit="1.45" shape-rendering="geometricPrecision" transform="matrix(1,0,0,1,-118,146)" stroke-linecap="butt">
      <rect x="269" y="-7" clip-path="url(#clipPath2)" fill="none" width="75" rx="4" ry="4" height="75"/>
    </g>
    <g font-size="20px" stroke-linecap="butt" transform="matrix(0,1,-1,0,207.2773,312.0879)" text-rendering="geometricPrecision" font-family="sans-serif" shape-rendering="geometricPrecision" font-weight="bold" stroke-miterlimit="1.45">
      <text x="2" xml:space="preserve" y="21.3359" clip-path="url(#clipPath3)" stroke="none">...</text>
    </g>
    <g fill="rgb(204,204,204)" text-rendering="geometricPrecision" shape-rendering="geometricPrecision" transform="matrix(1,0,0,1,-118,146)" stroke="rgb(204,204,204)">
      <rect x="423.5" width="116" height="297" y="-105.5" clip-path="url(#clipPath2)" stroke="none"/>
    </g>
    <g text-rendering="geometricPrecision" stroke-miterlimit="1.45" shape-rendering="geometricPrecision" transform="matrix(1,0,0,1,-118,146)" stroke-linecap="butt">
      <rect fill="none" x="423.5" width="116" height="297" y="-105.5" clip-path="url(#clipPath2)"/>
    </g>
    <g fill="white" text-rendering="geometricPrecision" shape-rendering="geometricPrecision" transform="matrix(1,0,0,1,-118,146)" stroke="white">
      <rect x="443" y="-92.5" clip-path="url(#clipPath2)" width="75" rx="4" ry="4" height="75" stroke="none"/>
    </g>
    <g text-rendering="geometricPrecision" stroke-miterlimit="1.45" shape-rendering="geometricPrecision" transform="matrix(1,0,0,1,-118,146)" stroke-linecap="butt">
      <rect x="443" y="-92.5" clip-path="url(#clipPath2)" fill="none" width="75" rx="4" ry="4" height="75"/>
    </g>
    <g fill="white" text-rendering="geometricPrecision" shape-rendering="geometricPrecision" transform="matrix(1,0,0,1,-118,146)" stroke="white">
      <rect x="443" y="-7" clip-path="url(#clipPath2)" width="75" rx="4" ry="4" height="75" stroke="none"/>
    </g>
    <g text-rendering="geometricPrecision" stroke-miterlimit="1.45" shape-rendering="geometricPrecision" transform="matrix(1,0,0,1,-118,146)" stroke-linecap="butt">
      <rect x="443" y="-7" clip-path="url(#clipPath2)" fill="none" width="75" rx="4" ry="4" height="75"/>
    </g>
    <g fill="white" text-rendering="geometricPrecision" shape-rendering="geometricPrecision" transform="matrix(1,0,0,1,-118,146)" stroke="white">
      <rect x="443" y="104.5" clip-path="url(#clipPath2)" width="75" rx="4" ry="4" height="75" stroke="none"/>
    </g>
    <g text-rendering="geometricPrecision" stroke-miterlimit="1.45" shape-rendering="geometricPrecision" transform="matrix(1,0,0,1,-118,146)" stroke-linecap="butt">
      <rect x="443" y="104.5" clip-path="url(#clipPath2)" fill="none" width="75" rx="4" ry="4" height="75"/>
    </g>
    <g font-size="20px" stroke-linecap="butt" transform="matrix(0,1,-1,0,381.2773,222.5879)" text-rendering="geometricPrecision" font-family="sans-serif" shape-rendering="geometricPrecision" font-weight="bold" stroke-miterlimit="1.45">
      <text x="2" xml:space="preserve" y="21.3359" clip-path="url(#clipPath4)" stroke="none">...</text>
    </g>
    <g fill="rgb(204,204,204)" text-rendering="geometricPrecision" shape-rendering="geometricPrecision" transform="matrix(1,0,0,1,-118,146)" stroke="rgb(204,204,204)">
      <rect x="133.5" width="116" height="392" y="-105.5" clip-path="url(#clipPath2)" stroke="none"/>
    </g>
    <g text-rendering="geometricPrecision" stroke-miterlimit="1.45" shape-rendering="geometricPrecision" transform="matrix(1,0,0,1,-118,146)" stroke-linecap="butt">
      <rect fill="none" x="133.5" width="116" height="392" y="-105.5" clip-path="url(#clipPath2)"/>
    </g>
    <g fill="white" text-rendering="geometricPrecision" shape-rendering="geometricPrecision" transform="matrix(1,0,0,1,-118,146)" stroke="white">
      <rect x="153" y="-92.5" clip-path="url(#clipPath2)" width="75" rx="4" ry="4" height="75" stroke="none"/>
    </g>
    <g text-rendering="geometricPrecision" stroke-miterlimit="1.45" shape-rendering="geometricPrecision" transform="matrix(1,0,0,1,-118,146)" stroke-linecap="butt">
      <rect x="153" y="-92.5" clip-path="url(#clipPath2)" fill="none" width="75" rx="4" ry="4" height="75"/>
    </g>
    <g fill="white" text-rendering="geometricPrecision" shape-rendering="geometricPrecision" transform="matrix(1,0,0,1,-118,146)" stroke="white">
      <rect x="153" y="-7" clip-path="url(#clipPath2)" width="75" rx="4" ry="4" height="75" stroke="none"/>
    </g>
    <g text-rendering="geometricPrecision" stroke-miterlimit="1.45" shape-rendering="geometricPrecision" transform="matrix(1,0,0,1,-118,146)" stroke-linecap="butt">
      <rect x="153" y="-7" clip-path="url(#clipPath2)" fill="none" width="75" rx="4" ry="4" height="75"/>
    </g>
    <g fill="white" text-rendering="geometricPrecision" shape-rendering="geometricPrecision" transform="matrix(1,0,0,1,-118,146)" stroke="white">
      <rect x="153" y="197.5" clip-path="url(#clipPath2)" width="75" rx="4" ry="4" height="75" stroke="none"/>
    </g>
    <g text-rendering="geometricPrecision" stroke-miterlimit="1.45" shape-rendering="geometricPrecision" transform="matrix(1,0,0,1,-118,146)" stroke-linecap="butt">
      <rect x="153" y="197.5" clip-path="url(#clipPath2)" fill="none" width="75" rx="4" ry="4" height="75"/>
    </g>
    <g font-size="20px" stroke-linecap="butt" transform="matrix(0,1,-1,0,91.2773,312.0879)" text-rendering="geometricPrecision" font-family="sans-serif" shape-rendering="geometricPrecision" font-weight="bold" stroke-miterlimit="1.45">
      <text x="2" xml:space="preserve" y="21.3359" clip-path="url(#clipPath5)" stroke="none">...</text>
    </g>
    <g fill="white" text-rendering="geometricPrecision" shape-rendering="geometricPrecision" transform="matrix(1,0,0,1,-118,146)" stroke="white">
      <rect x="154" y="78.5" clip-path="url(#clipPath2)" width="75" rx="4" ry="4" height="75" stroke="none"/>
    </g>
    <g text-rendering="geometricPrecision" stroke-miterlimit="1.45" shape-rendering="geometricPrecision" transform="matrix(1,0,0,1,-118,146)" stroke-linecap="butt">
      <rect x="154" y="78.5" clip-path="url(#clipPath2)" fill="none" width="75" rx="4" ry="4" height="75"/>
    </g>
    <g fill="white" text-rendering="geometricPrecision" shape-rendering="geometricPrecision" transform="matrix(1,0,0,1,-118,146)" stroke="white">
      <rect x="269" y="197.5" clip-path="url(#clipPath2)" width="75" rx="4" ry="4" height="75" stroke="none"/>
    </g>
    <g text-rendering="geometricPrecision" stroke-miterlimit="1.45" shape-rendering="geometricPrecision" transform="matrix(1,0,0,1,-118,146)" stroke-linecap="butt">
      <rect x="269" y="197.5" clip-path="url(#clipPath2)" fill="none" width="75" rx="4" ry="4" height="75"/>
      <text x="385.6025" xml:space="preserve" y="239.5352" clip-path="url(#clipPath2)" font-family="sans-serif" stroke="none">network communication</text>
      <text x="163.0366" font-size="14px" y="-114.709" clip-path="url(#clipPath2)" font-family="sans-serif" stroke="none" font-weight="bold" xml:space="preserve">bigRDD</text>
      <text x="284.085" font-size="14px" y="-114.709" clip-path="url(#clipPath2)" font-family="sans-serif" stroke="none" font-weight="bold" xml:space="preserve">joined</text>
      <text x="445.1548" font-size="14px" y="-114.709" clip-path="url(#clipPath2)" font-family="sans-serif" stroke="none" font-weight="bold" xml:space="preserve">smallRDD</text>
    </g>
    <g fill="white" text-rendering="geometricPrecision" shape-rendering="geometricPrecision" transform="matrix(1,0,0,1,-118,146)" stroke="white">
      <rect x="269" y="78.5" clip-path="url(#clipPath2)" width="75" rx="4" ry="4" height="75" stroke="none"/>
    </g>
    <g text-rendering="geometricPrecision" stroke-miterlimit="1.45" shape-rendering="geometricPrecision" transform="matrix(1,0,0,1,-118,146)" stroke-linecap="butt">
      <rect x="269" y="78.5" clip-path="url(#clipPath2)" fill="none" width="75" rx="4" ry="4" height="75"/>
      <text x="417" xml:space="preserve" y="269.5352" clip-path="url(#clipPath2)" font-family="sans-serif" stroke="none">local referece</text>
      <path fill="none" d="M442.9897 -55 L351.988 -55" clip-path="url(#clipPath2)"/>
      <path d="M343.988 -55 L355.988 -50 L352.988 -55 L355.988 -60 Z" clip-path="url(#clipPath2)" stroke="none"/>
      <path fill="none" d="M442.9897 -36.5682 L351.168 8.5511" clip-path="url(#clipPath2)"/>
      <path d="M343.988 12.0792 L356.9631 11.2745 L352.0656 8.11 L352.553 2.2995 Z" clip-path="url(#clipPath2)" stroke="none"/>
      <path fill="none" d="M442.9897 12.0682 L351.168 -33.0511" clip-path="url(#clipPath2)"/>
      <path d="M343.988 -36.5792 L352.553 -26.7995 L352.0656 -32.61 L356.9631 -35.7745 Z" clip-path="url(#clipPath2)" stroke="none"/>
      <path fill="none" d="M442.9897 30.5 L351.988 30.5" clip-path="url(#clipPath2)"/>
      <path d="M343.988 30.5 L355.988 35.5 L352.988 30.5 L355.988 25.5 Z" clip-path="url(#clipPath2)" stroke="none"/>
      <path fill="none" d="M447.3865 104.5094 L344.9023 -11.5216" clip-path="url(#clipPath2)"/>
      <path d="M339.6063 -17.5176 L343.8027 -5.2136 L345.5642 -10.7721 L351.2978 -11.8336 Z" clip-path="url(#clipPath2)" stroke="none"/>
      <path fill="none" d="M443.011 117.9769 L350.7296 58.8425" clip-path="url(#clipPath2)"/>
      <path d="M343.9939 54.5262 L351.3997 65.2105 L351.5715 59.382 L356.7951 56.7908 Z" clip-path="url(#clipPath2)" stroke="none"/>
      <path fill="none" stroke-dasharray="6,2" d="M228.0244 -55 L260.9865 -55" clip-path="url(#clipPath2)"/>
      <path stroke-dasharray="6,2" d="M268.9865 -55 L256.9865 -60 L259.9865 -55 L256.9865 -50 Z" clip-path="url(#clipPath2)" stroke="none"/>
      <path fill="none" stroke-dasharray="6,2" d="M228.0244 30.5 L260.9865 30.5" clip-path="url(#clipPath2)"/>
      <path stroke-dasharray="6,2" d="M268.9865 30.5 L256.9865 25.5 L259.9865 30.5 L256.9865 35.5 Z" clip-path="url(#clipPath2)" stroke="none"/>
      <path fill="none" stroke-dasharray="6,2" d="M228.0244 235 L260.9865 235" clip-path="url(#clipPath2)"/>
      <path stroke-dasharray="6,2" d="M268.9865 235 L256.9865 230 L259.9865 235 L256.9865 240 Z" clip-path="url(#clipPath2)" stroke="none"/>
      <path fill="none" d="M458.0066 -17.511 L333.1237 190.6271" clip-path="url(#clipPath2)"/>
      <path d="M329.0078 197.4871 L339.4692 189.7696 L333.6382 189.7696 L330.8942 184.6247 Z" clip-path="url(#clipPath2)" stroke="none"/>
      <path fill="none" d="M448.5759 68.02 L343.5785 191.4222" clip-path="url(#clipPath2)"/>
      <path d="M338.3943 197.5151 L349.9787 191.6158 L344.2265 190.6605 L342.3625 185.1356 Z" clip-path="url(#clipPath2)" stroke="none"/>
      <path fill="none" d="M442.9897 162.0486 L351.0435 211.1923" clip-path="url(#clipPath2)"/>
      <path d="M343.988 214.9633 L356.9281 213.7164 L351.9254 210.7209 L352.2143 204.8971 Z" clip-path="url(#clipPath2)" stroke="none"/>
      <path fill="none" d="M383.5 220.5 L528 220.5" clip-path="url(#clipPath2)"/>
      <path d="M536 220.5 L524 215.5 L527 220.5 L524 225.5 Z" clip-path="url(#clipPath2)" stroke="none"/>
      <path fill="none" stroke-dasharray="6,2" d="M228.9817 116 L260.9899 116" clip-path="url(#clipPath2)"/>
      <path stroke-dasharray="6,2" d="M268.9899 116 L256.9899 111 L259.9899 116 L256.9899 121 Z" clip-path="url(#clipPath2)" stroke="none"/>
      <path fill="none" stroke-dasharray="6,2" d="M383.5 250.5 L528 250.5" clip-path="url(#clipPath2)"/>
      <path stroke-dasharray="6,2" d="M536 250.5 L524 245.5 L527 250.5 L524 255.5 Z" clip-path="url(#clipPath2)" stroke="none"/>
    </g>
  </g>
</svg>
