<?xml version="1.0" encoding="UTF-8"?><svg xmlns="http://www.w3.org/2000/svg" xmlns:xlink="http://www.w3.org/1999/xlink" fill-opacity="1" color-rendering="auto" color-interpolation="auto" text-rendering="auto" stroke="black" stroke-linecap="square" width="437" stroke-miterlimit="10" shape-rendering="auto" stroke-opacity="1" fill="black" stroke-dasharray="none" font-weight="normal" stroke-width="1" height="448" font-family="'Dialog'" font-style="normal" stroke-linejoin="miter" font-size="12px" stroke-dashoffset="0" image-rendering="auto">
  <!--Generated by ySVG 2.5-->
  <defs id="genericDefs"/>
  <g>
    <defs id="defs1">
      <clipPath clipPathUnits="userSpaceOnUse" id="clipPath1">
        <path d="M0 0 L437 0 L437 448 L0 448 L0 0 Z"/>
      </clipPath>
      <clipPath clipPathUnits="userSpaceOnUse" id="clipPath2">
        <path d="M118 -146 L555 -146 L555 302 L118 302 L118 -146 Z"/>
      </clipPath>
      <clipPath clipPathUnits="userSpaceOnUse" id="clipPath3">
        <path d="M-222.5879 237.2773 L-222.5879 -199.7227 L225.4121 -199.7227 L225.4121 237.2773 L-222.5879 237.2773 Z"/>
      </clipPath>
      <clipPath clipPathUnits="userSpaceOnUse" id="clipPath4">
        <path d="M-222.5879 381.2773 L-222.5879 -55.7227 L225.4121 -55.7227 L225.4121 381.2773 L-222.5879 381.2773 Z"/>
      </clipPath>
      <clipPath clipPathUnits="userSpaceOnUse" id="clipPath5">
        <path d="M-312.0879 91.2773 L-312.0879 -345.7227 L135.9121 -345.7227 L135.9121 91.2773 L-312.0879 91.2773 Z"/>
      </clipPath>
    </defs>
    <g fill="white" text-rendering="geometricPrecision" shape-rendering="geometricPrecision" transform="translate(-118,146)" stroke="white">
      <rect x="118" width="437" height="448" y="-146" clip-path="url(#clipPath2)" stroke="none"/>
    </g>
    <g fill="rgb(204,204,204)" text-rendering="geometricPrecision" shape-rendering="geometricPrecision" transform="matrix(1,0,0,1,-118,146)" stroke="rgb(204,204,204)">
      <rect x="279.5" width="116" height="297" y="-105.5" clip-path="url(#clipPath2)" stroke="none"/>
    </g>
    <g text-rendering="geometricPrecision" stroke-miterlimit="1.45" shape-rendering="geometricPrecision" transform="matrix(1,0,0,1,-118,146)" stroke-linecap="butt">
      <rect fill="none" x="279.5" width="116" height="297" y="-105.5" clip-path="url(#clipPath2)"/>
    </g>
    <g fill="white" text-rendering="geometricPrecision" shape-rendering="geometricPrecision" transform="matrix(1,0,0,1,-118,146)" stroke="white">
      <rect x="299" y="-92.5" clip-path="url(#clipPath2)" width="75" rx="4" ry="4" height="75" stroke="none"/>
    </g>
    <g text-rendering="geometricPrecision" stroke-miterlimit="1.45" shape-rendering="geometricPrecision" transform="matrix(1,0,0,1,-118,146)" stroke-linecap="butt">
      <rect x="299" y="-92.5" clip-path="url(#clipPath2)" fill="none" width="75" rx="4" ry="4" height="75"/>
    </g>
    <g fill="white" text-rendering="geometricPrecision" shape-rendering="geometricPrecision" transform="matrix(1,0,0,1,-118,146)" stroke="white">
      <rect x="299" y="-7" clip-path="url(#clipPath2)" width="75" rx="4" ry="4" height="75" stroke="none"/>
    </g>
    <g text-rendering="geometricPrecision" stroke-miterlimit="1.45" shape-rendering="geometricPrecision" transform="matrix(1,0,0,1,-118,146)" stroke-linecap="butt">
      <rect x="299" y="-7" clip-path="url(#clipPath2)" fill="none" width="75" rx="4" ry="4" height="75"/>
    </g>
    <g font-size="20px" stroke-linecap="butt" transform="matrix(0,1,-1,0,237.2773,222.5879)" text-rendering="geometricPrecision" font-family="sans-serif" shape-rendering="geometricPrecision" font-weight="bold" stroke-miterlimit="1.45">
      <text x="2" xml:space="preserve" y="21.3359" clip-path="url(#clipPath3)" stroke="none">...</text>
    </g>
    <g fill="rgb(204,204,204)" text-rendering="geometricPrecision" shape-rendering="geometricPrecision" transform="matrix(1,0,0,1,-118,146)" stroke="rgb(204,204,204)">
      <rect x="423.5" width="116" height="297" y="-105.5" clip-path="url(#clipPath2)" stroke="none"/>
    </g>
    <g text-rendering="geometricPrecision" stroke-miterlimit="1.45" shape-rendering="geometricPrecision" transform="matrix(1,0,0,1,-118,146)" stroke-linecap="butt">
      <rect fill="none" x="423.5" width="116" height="297" y="-105.5" clip-path="url(#clipPath2)"/>
    </g>
    <g fill="white" text-rendering="geometricPrecision" shape-rendering="geometricPrecision" transform="matrix(1,0,0,1,-118,146)" stroke="white">
      <rect x="443" y="-92.5" clip-path="url(#clipPath2)" width="75" rx="4" ry="4" height="75" stroke="none"/>
    </g>
    <g text-rendering="geometricPrecision" stroke-miterlimit="1.45" shape-rendering="geometricPrecision" transform="matrix(1,0,0,1,-118,146)" stroke-linecap="butt">
      <rect x="443" y="-92.5" clip-path="url(#clipPath2)" fill="none" width="75" rx="4" ry="4" height="75"/>
    </g>
    <g fill="white" text-rendering="geometricPrecision" shape-rendering="geometricPrecision" transform="matrix(1,0,0,1,-118,146)" stroke="white">
      <rect x="443" y="-7" clip-path="url(#clipPath2)" width="75" rx="4" ry="4" height="75" stroke="none"/>
    </g>
    <g text-rendering="geometricPrecision" stroke-miterlimit="1.45" shape-rendering="geometricPrecision" transform="matrix(1,0,0,1,-118,146)" stroke-linecap="butt">
      <rect x="443" y="-7" clip-path="url(#clipPath2)" fill="none" width="75" rx="4" ry="4" height="75"/>
    </g>
    <g fill="white" text-rendering="geometricPrecision" shape-rendering="geometricPrecision" transform="matrix(1,0,0,1,-118,146)" stroke="white">
      <rect x="443" y="104.5" clip-path="url(#clipPath2)" width="75" rx="4" ry="4" height="75" stroke="none"/>
    </g>
    <g text-rendering="geometricPrecision" stroke-miterlimit="1.45" shape-rendering="geometricPrecision" transform="matrix(1,0,0,1,-118,146)" stroke-linecap="butt">
      <rect x="443" y="104.5" clip-path="url(#clipPath2)" fill="none" width="75" rx="4" ry="4" height="75"/>
    </g>
    <g font-size="20px" stroke-linecap="butt" transform="matrix(0,1,-1,0,381.2773,222.5879)" text-rendering="geometricPrecision" font-family="sans-serif" shape-rendering="geometricPrecision" font-weight="bold" stroke-miterlimit="1.45">
      <text x="2" xml:space="preserve" y="21.3359" clip-path="url(#clipPath4)" stroke="none">...</text>
    </g>
    <g fill="rgb(204,204,204)" text-rendering="geometricPrecision" shape-rendering="geometricPrecision" transform="matrix(1,0,0,1,-118,146)" stroke="rgb(204,204,204)">
      <rect x="133.5" width="116" height="392" y="-105.5" clip-path="url(#clipPath2)" stroke="none"/>
    </g>
    <g text-rendering="geometricPrecision" stroke-miterlimit="1.45" shape-rendering="geometricPrecision" transform="matrix(1,0,0,1,-118,146)" stroke-linecap="butt">
      <rect fill="none" x="133.5" width="116" height="392" y="-105.5" clip-path="url(#clipPath2)"/>
    </g>
    <g fill="white" text-rendering="geometricPrecision" shape-rendering="geometricPrecision" transform="matrix(1,0,0,1,-118,146)" stroke="white">
      <rect x="153" y="-92.5" clip-path="url(#clipPath2)" width="75" rx="4" ry="4" height="75" stroke="none"/>
    </g>
    <g text-rendering="geometricPrecision" stroke-miterlimit="1.45" shape-rendering="geometricPrecision" transform="matrix(1,0,0,1,-118,146)" stroke-linecap="butt">
      <rect x="153" y="-92.5" clip-path="url(#clipPath2)" fill="none" width="75" rx="4" ry="4" height="75"/>
    </g>
    <g fill="white" text-rendering="geometricPrecision" shape-rendering="geometricPrecision" transform="matrix(1,0,0,1,-118,146)" stroke="white">
      <rect x="153" y="-7" clip-path="url(#clipPath2)" width="75" rx="4" ry="4" height="75" stroke="none"/>
    </g>
    <g text-rendering="geometricPrecision" stroke-miterlimit="1.45" shape-rendering="geometricPrecision" transform="matrix(1,0,0,1,-118,146)" stroke-linecap="butt">
      <rect x="153" y="-7" clip-path="url(#clipPath2)" fill="none" width="75" rx="4" ry="4" height="75"/>
    </g>
    <g fill="white" text-rendering="geometricPrecision" shape-rendering="geometricPrecision" transform="matrix(1,0,0,1,-118,146)" stroke="white">
      <rect x="153" y="197.5" clip-path="url(#clipPath2)" width="75" rx="4" ry="4" height="75" stroke="none"/>
    </g>
    <g text-rendering="geometricPrecision" stroke-miterlimit="1.45" shape-rendering="geometricPrecision" transform="matrix(1,0,0,1,-118,146)" stroke-linecap="butt">
      <rect x="153" y="197.5" clip-path="url(#clipPath2)" fill="none" width="75" rx="4" ry="4" height="75"/>
    </g>
    <g font-size="20px" stroke-linecap="butt" transform="matrix(0,1,-1,0,91.2773,312.0879)" text-rendering="geometricPrecision" font-family="sans-serif" shape-rendering="geometricPrecision" font-weight="bold" stroke-miterlimit="1.45">
      <text x="2" xml:space="preserve" y="21.3359" clip-path="url(#clipPath5)" stroke="none">...</text>
    </g>
    <g fill="white" text-rendering="geometricPrecision" shape-rendering="geometricPrecision" transform="matrix(1,0,0,1,-118,146)" stroke="white">
      <rect x="154" y="78.5" clip-path="url(#clipPath2)" width="75" rx="4" ry="4" height="75" stroke="none"/>
    </g>
    <g text-rendering="geometricPrecision" stroke-miterlimit="1.45" shape-rendering="geometricPrecision" transform="matrix(1,0,0,1,-118,146)" stroke-linecap="butt">
      <rect x="154" y="78.5" clip-path="url(#clipPath2)" fill="none" width="75" rx="4" ry="4" height="75"/>
    </g>
    <g fill="white" text-rendering="geometricPrecision" shape-rendering="geometricPrecision" transform="matrix(1,0,0,1,-118,146)" stroke="white">
      <rect x="299" y="104.5" clip-path="url(#clipPath2)" width="75" rx="4" ry="4" height="75" stroke="none"/>
    </g>
    <g text-rendering="geometricPrecision" stroke-miterlimit="1.45" shape-rendering="geometricPrecision" transform="matrix(1,0,0,1,-118,146)" stroke-linecap="butt">
      <rect x="299" y="104.5" clip-path="url(#clipPath2)" fill="none" width="75" rx="4" ry="4" height="75"/>
      <text x="369.6025" xml:space="preserve" y="277.5352" clip-path="url(#clipPath2)" font-family="sans-serif" stroke="none">network communication</text>
      <text x="163.0366" font-size="14px" y="-114.709" clip-path="url(#clipPath2)" font-family="sans-serif" stroke="none" font-weight="bold" xml:space="preserve">bigRDD</text>
      <text x="314.085" font-size="14px" y="-114.709" clip-path="url(#clipPath2)" font-family="sans-serif" stroke="none" font-weight="bold" xml:space="preserve">joined</text>
      <text x="445.1548" font-size="14px" y="-114.709" clip-path="url(#clipPath2)" font-family="sans-serif" stroke="none" font-weight="bold" xml:space="preserve">smallRDD</text>
      <path fill="none" d="M442.9883 -55 L382.0153 -55" clip-path="url(#clipPath2)"/>
      <path d="M374.0153 -55 L386.0153 -50 L383.0153 -55 L386.0153 -60 Z" clip-path="url(#clipPath2)" stroke="none"/>
      <path fill="none" d="M442.9883 -32.7274 L380.8941 4.141" clip-path="url(#clipPath2)"/>
      <path d="M374.0153 8.2253 L386.8862 6.3981 L381.7539 3.6305 L381.7808 -2.2004 Z" clip-path="url(#clipPath2)" stroke="none"/>
      <path fill="none" d="M442.9883 8.2274 L380.8941 -28.641" clip-path="url(#clipPath2)"/>
      <path d="M374.0153 -32.7253 L381.7808 -22.2996 L381.7539 -28.1305 L386.8862 -30.8981 Z" clip-path="url(#clipPath2)" stroke="none"/>
      <path fill="none" d="M442.9883 30.5 L382.0153 30.5" clip-path="url(#clipPath2)"/>
      <path d="M374.0153 30.5 L386.0153 35.5 L383.0153 30.5 L386.0153 25.5 Z" clip-path="url(#clipPath2)" stroke="none"/>
      <path fill="none" d="M453.0957 104.5094 L368.6335 -11.0396" clip-path="url(#clipPath2)"/>
      <path d="M363.9125 -17.4981 L366.9574 -4.8598 L369.2236 -10.2323 L375.0305 -10.761 Z" clip-path="url(#clipPath2)" stroke="none"/>
      <path fill="none" d="M442.9883 112.9545 L380.3407 64.4461" clip-path="url(#clipPath2)"/>
      <path d="M374.0153 59.5483 L380.4423 70.8484 L381.1314 65.0583 L386.5646 62.9416 Z" clip-path="url(#clipPath2)" stroke="none"/>
      <path fill="none" d="M228.0337 -55 L290.9764 -55" clip-path="url(#clipPath2)"/>
      <path d="M298.9764 -55 L286.9764 -60 L289.9764 -55 L286.9764 -50 Z" clip-path="url(#clipPath2)" stroke="none"/>
      <path fill="none" d="M228.0337 -33.0197 L292.073 4.4828" clip-path="url(#clipPath2)"/>
      <path d="M298.9764 8.5256 L291.148 -1.8531 L291.2101 3.9775 L286.0946 6.7761 Z" clip-path="url(#clipPath2)" stroke="none"/>
      <path fill="none" d="M228.0337 8.5197 L292.073 -28.9828" clip-path="url(#clipPath2)"/>
      <path d="M298.9764 -33.0256 L286.0946 -31.2761 L291.2101 -28.4775 L291.148 -22.6469 Z" clip-path="url(#clipPath2)" stroke="none"/>
      <path fill="none" d="M228.0337 30.5 L290.9764 30.5" clip-path="url(#clipPath2)"/>
      <path d="M298.9764 30.5 L286.9764 25.5 L289.9764 30.5 L286.9764 35.5 Z" clip-path="url(#clipPath2)" stroke="none"/>
      <path fill="none" d="M209.3738 197.511 L314.0168 -10.3415" clip-path="url(#clipPath2)"/>
      <path d="M317.6142 -17.4871 L307.7521 -9.0172 L313.5671 -9.4483 L316.6841 -4.5204 Z" clip-path="url(#clipPath2)" stroke="none"/>
      <path fill="none" d="M217.2869 197.48 L305.0898 74.4958" clip-path="url(#clipPath2)"/>
      <path d="M309.7382 67.9849 L298.6962 74.8461 L304.5087 75.3097 L306.8349 80.6566 Z" clip-path="url(#clipPath2)" stroke="none"/>
      <path fill="none" d="M223.3073 78.4894 L299.5182 -11.387" clip-path="url(#clipPath2)"/>
      <path d="M304.6922 -17.4887 L293.1177 -11.5699 L298.8715 -10.6243 L300.7448 -5.1025 Z" clip-path="url(#clipPath2)" stroke="none"/>
      <path fill="none" d="M228.989 93.8944 L292.1007 56.6803" clip-path="url(#clipPath2)"/>
      <path d="M298.9919 52.6168 L286.1154 54.405 L291.2393 57.1882 L291.1947 63.019 Z" clip-path="url(#clipPath2)" stroke="none"/>
      <path fill="none" d="M218.2849 -17.5094 L303.9434 98.0709" clip-path="url(#clipPath2)"/>
      <path d="M308.7068 104.4982 L305.5788 91.8801 L303.348 97.2674 L297.5446 97.8343 Z" clip-path="url(#clipPath2)" stroke="none"/>
      <path fill="none" d="M228.0337 59.1644 L292.6184 108.4877" clip-path="url(#clipPath2)"/>
      <path d="M298.9764 113.3433 L292.4742 102.0862 L291.8237 107.8808 L286.4047 110.0336 Z" clip-path="url(#clipPath2)" stroke="none"/>
      <path fill="none" d="M228.989 122.7222 L291.1175 133.8624" clip-path="url(#clipPath2)"/>
      <path d="M298.9919 135.2744 L288.0628 128.2349 L290.1332 133.6859 L286.2978 138.078 Z" clip-path="url(#clipPath2)" stroke="none"/>
      <path fill="none" d="M228.0337 211.0916 L292.229 170.2" clip-path="url(#clipPath2)"/>
      <path d="M298.9764 165.902 L286.169 168.1319 L291.3856 170.7373 L291.5415 176.5661 Z" clip-path="url(#clipPath2)" stroke="none"/>
      <path fill="none" d="M453.0957 -17.5094 L368.6335 98.0396" clip-path="url(#clipPath2)"/>
      <path d="M363.9125 104.4981 L375.0305 97.761 L369.2236 97.2323 L366.9574 91.8598 Z" clip-path="url(#clipPath2)" stroke="none"/>
      <path fill="none" d="M442.9883 59.5455 L380.3407 108.0539" clip-path="url(#clipPath2)"/>
      <path d="M374.0153 112.9517 L386.5646 109.5584 L381.1314 107.4417 L380.4423 101.6516 Z" clip-path="url(#clipPath2)" stroke="none"/>
      <path fill="none" d="M442.9883 142 L382.0153 142" clip-path="url(#clipPath2)"/>
      <path d="M374.0153 142 L386.0153 147 L383.0153 142 L386.0153 137 Z" clip-path="url(#clipPath2)" stroke="none"/>
      <path fill="none" d="M382.5 257.5 L488.5 257.5" clip-path="url(#clipPath2)"/>
      <path d="M496.5 257.5 L484.5 252.5 L487.5 257.5 L484.5 262.5 Z" clip-path="url(#clipPath2)" stroke="none"/>
    </g>
  </g>
</svg>
