<?xml version="1.0" encoding="UTF-8"?><svg xmlns="http://www.w3.org/2000/svg" xmlns:xlink="http://www.w3.org/1999/xlink" fill-opacity="1" color-rendering="auto" color-interpolation="auto" text-rendering="auto" stroke="black" stroke-linecap="square" width="147" stroke-miterlimit="10" shape-rendering="auto" stroke-opacity="1" fill="black" stroke-dasharray="none" font-weight="normal" stroke-width="1" height="328" font-family="'Dialog'" font-style="normal" stroke-linejoin="miter" font-size="12px" stroke-dashoffset="0" image-rendering="auto">
  <!--Generated by ySVG 2.5-->
  <defs id="genericDefs"/>
  <g>
    <defs id="defs1">
      <clipPath clipPathUnits="userSpaceOnUse" id="clipPath1">
        <path d="M0 0 L147 0 L147 328 L0 328 L0 0 Z"/>
      </clipPath>
      <clipPath clipPathUnits="userSpaceOnUse" id="clipPath2">
        <path d="M256 -258 L403 -258 L403 70 L256 70 L256 -258 Z"/>
      </clipPath>
      <clipPath clipPathUnits="userSpaceOnUse" id="clipPath3">
        <path d="M-197.5879 91.2773 L-197.5879 -55.7227 L130.4121 -55.7227 L130.4121 91.2773 L-197.5879 91.2773 Z"/>
      </clipPath>
    </defs>
    <g fill="white" text-rendering="geometricPrecision" shape-rendering="geometricPrecision" transform="translate(-256,258)" stroke="white">
      <rect x="256" width="147" height="328" y="-258" clip-path="url(#clipPath2)" stroke="none"/>
    </g>
    <g fill="rgb(204,204,204)" text-rendering="geometricPrecision" shape-rendering="geometricPrecision" transform="matrix(1,0,0,1,-256,258)" stroke="rgb(204,204,204)">
      <rect x="271.5" width="116" height="297" y="-242.5" clip-path="url(#clipPath2)" stroke="none"/>
    </g>
    <g text-rendering="geometricPrecision" stroke-miterlimit="1.45" shape-rendering="geometricPrecision" transform="matrix(1,0,0,1,-256,258)" stroke-linecap="butt">
      <rect fill="none" x="271.5" width="116" height="297" y="-242.5" clip-path="url(#clipPath2)"/>
    </g>
    <g fill="white" text-rendering="geometricPrecision" shape-rendering="geometricPrecision" transform="matrix(1,0,0,1,-256,258)" stroke="white">
      <rect x="291" y="-229.5" clip-path="url(#clipPath2)" width="75" rx="4" ry="4" height="75" stroke="none"/>
    </g>
    <g text-rendering="geometricPrecision" stroke-miterlimit="1.45" shape-rendering="geometricPrecision" font-family="sans-serif" transform="matrix(1,0,0,1,-256,258)" stroke-linecap="butt">
      <text x="320.9297" xml:space="preserve" y="-187.4648" clip-path="url(#clipPath2)" stroke="none">p0</text>
      <rect x="291" y="-229.5" clip-path="url(#clipPath2)" fill="none" width="75" rx="4" ry="4" height="75"/>
    </g>
    <g fill="white" text-rendering="geometricPrecision" shape-rendering="geometricPrecision" transform="matrix(1,0,0,1,-256,258)" stroke="white">
      <rect x="291" y="-144" clip-path="url(#clipPath2)" width="75" rx="4" ry="4" height="75" stroke="none"/>
    </g>
    <g text-rendering="geometricPrecision" stroke-miterlimit="1.45" shape-rendering="geometricPrecision" font-family="sans-serif" transform="matrix(1,0,0,1,-256,258)" stroke-linecap="butt">
      <text x="320.9297" xml:space="preserve" y="-101.9648" clip-path="url(#clipPath2)" stroke="none">p1</text>
      <rect x="291" y="-144" clip-path="url(#clipPath2)" fill="none" width="75" rx="4" ry="4" height="75"/>
    </g>
    <g fill="white" text-rendering="geometricPrecision" shape-rendering="geometricPrecision" transform="matrix(1,0,0,1,-256,258)" stroke="white">
      <rect x="291" y="-32.5" clip-path="url(#clipPath2)" width="75" rx="4" ry="4" height="75" stroke="none"/>
    </g>
    <g text-rendering="geometricPrecision" stroke-miterlimit="1.45" shape-rendering="geometricPrecision" font-family="sans-serif" transform="matrix(1,0,0,1,-256,258)" stroke-linecap="butt">
      <text x="321" xml:space="preserve" y="9.5352" clip-path="url(#clipPath2)" stroke="none">pn</text>
      <rect x="291" y="-32.5" clip-path="url(#clipPath2)" fill="none" width="75" rx="4" ry="4" height="75"/>
    </g>
    <g font-size="20px" stroke-linecap="butt" transform="matrix(0,1,-1,0,91.2773,197.5879)" text-rendering="geometricPrecision" font-family="sans-serif" shape-rendering="geometricPrecision" font-weight="bold" stroke-miterlimit="1.45">
      <text x="2" xml:space="preserve" y="21.3359" clip-path="url(#clipPath3)" stroke="none">...</text>
    </g>
  </g>
</svg>
