<?xml version="1.0" encoding="UTF-8"?><svg xmlns="http://www.w3.org/2000/svg" xmlns:xlink="http://www.w3.org/1999/xlink" fill-opacity="1" color-rendering="auto" color-interpolation="auto" text-rendering="auto" stroke="black" stroke-linecap="square" width="241" stroke-miterlimit="10" shape-rendering="auto" stroke-opacity="1" fill="black" stroke-dasharray="none" font-weight="normal" stroke-width="1" height="461" font-family="'Dialog'" font-style="normal" stroke-linejoin="miter" font-size="12px" stroke-dashoffset="0" image-rendering="auto">
  <!--Generated by ySVG 2.5-->
  <defs id="genericDefs"/>
  <g>
    <defs id="defs1">
      <clipPath clipPathUnits="userSpaceOnUse" id="clipPath1">
        <path d="M0 0 L241 0 L241 461 L0 461 L0 0 Z"/>
      </clipPath>
      <clipPath clipPathUnits="userSpaceOnUse" id="clipPath2">
        <path d="M359 86 L600 86 L600 547 L359 547 L359 86 Z"/>
      </clipPath>
    </defs>
    <g fill="rgb(204,204,204)" text-rendering="geometricPrecision" shape-rendering="geometricPrecision" transform="matrix(1,0,0,1,-359,-86)" stroke="rgb(204,204,204)">
      <rect x="387" width="185" height="51" y="150" clip-path="url(#clipPath2)" stroke="none"/>
    </g>
    <g font-size="20px" stroke-linecap="butt" transform="matrix(1,0,0,1,-359,-86)" text-rendering="geometricPrecision" font-family="sans-serif" shape-rendering="geometricPrecision" stroke-miterlimit="1.45">
      <text x="426.6826" xml:space="preserve" y="183.0586" clip-path="url(#clipPath2)" stroke="none">RDD graph</text>
      <rect fill="none" x="387" width="185" height="51" y="150" clip-path="url(#clipPath2)"/>
    </g>
    <g fill="rgb(204,204,204)" text-rendering="geometricPrecision" shape-rendering="geometricPrecision" transform="matrix(1,0,0,1,-359,-86)" stroke="rgb(204,204,204)">
      <rect x="387" width="185" height="51" y="213" clip-path="url(#clipPath2)" stroke="none"/>
    </g>
    <g font-size="20px" stroke-linecap="butt" transform="matrix(1,0,0,1,-359,-86)" text-rendering="geometricPrecision" font-family="sans-serif" shape-rendering="geometricPrecision" stroke-miterlimit="1.45">
      <text x="410.5449" xml:space="preserve" y="246.0586" clip-path="url(#clipPath2)" stroke="none">DAGScheduler</text>
      <rect fill="none" x="387" width="185" height="51" y="213" clip-path="url(#clipPath2)"/>
    </g>
    <g fill="rgb(204,204,204)" text-rendering="geometricPrecision" shape-rendering="geometricPrecision" transform="matrix(1,0,0,1,-359,-86)" stroke="rgb(204,204,204)">
      <rect x="387" width="185" height="51" y="276" clip-path="url(#clipPath2)" stroke="none"/>
    </g>
    <g font-size="20px" stroke-linecap="butt" transform="matrix(1,0,0,1,-359,-86)" text-rendering="geometricPrecision" font-family="sans-serif" shape-rendering="geometricPrecision" stroke-miterlimit="1.45">
      <text x="406.209" xml:space="preserve" y="309.0586" clip-path="url(#clipPath2)" stroke="none">Task Scheduler</text>
      <rect fill="none" x="387" width="185" height="51" y="276" clip-path="url(#clipPath2)"/>
    </g>
    <g fill="rgb(204,204,204)" text-rendering="geometricPrecision" shape-rendering="geometricPrecision" transform="matrix(1,0,0,1,-359,-86)" stroke="rgb(204,204,204)">
      <rect x="387" width="185" height="51" y="339" clip-path="url(#clipPath2)" stroke="none"/>
    </g>
    <g font-size="20px" stroke-linecap="butt" transform="matrix(1,0,0,1,-359,-86)" text-rendering="geometricPrecision" font-family="sans-serif" shape-rendering="geometricPrecision" stroke-miterlimit="1.45">
      <text x="388.6846" xml:space="preserve" y="372.0586" clip-path="url(#clipPath2)" stroke="none">Scheduler Backend</text>
      <rect fill="none" x="387" width="185" height="51" y="339" clip-path="url(#clipPath2)"/>
    </g>
    <g fill="rgb(204,204,204)" text-rendering="geometricPrecision" shape-rendering="geometricPrecision" transform="matrix(1,0,0,1,-359,-86)" stroke="rgb(204,204,204)">
      <rect x="387" width="185" height="51" y="402" clip-path="url(#clipPath2)" stroke="none"/>
    </g>
    <g font-size="20px" stroke-linecap="butt" transform="matrix(1,0,0,1,-359,-86)" text-rendering="geometricPrecision" font-family="sans-serif" shape-rendering="geometricPrecision" stroke-miterlimit="1.45">
      <text x="420.7793" xml:space="preserve" y="435.0586" clip-path="url(#clipPath2)" stroke="none">Listener Bus</text>
      <rect fill="none" x="387" width="185" height="51" y="402" clip-path="url(#clipPath2)"/>
    </g>
    <g fill="rgb(204,204,204)" text-rendering="geometricPrecision" shape-rendering="geometricPrecision" transform="matrix(1,0,0,1,-359,-86)" stroke="rgb(204,204,204)">
      <rect x="387" width="185" height="51" y="465" clip-path="url(#clipPath2)" stroke="none"/>
    </g>
    <g font-size="20px" stroke-linecap="butt" transform="matrix(1,0,0,1,-359,-86)" text-rendering="geometricPrecision" font-family="sans-serif" shape-rendering="geometricPrecision" stroke-miterlimit="1.45">
      <text x="408.8213" xml:space="preserve" y="498.0586" clip-path="url(#clipPath2)" stroke="none">Block Manager</text>
      <rect fill="none" x="387" width="185" height="51" y="465" clip-path="url(#clipPath2)"/>
      <text x="403.5527" font-size="22px" y="124.8594" clip-path="url(#clipPath2)" stroke="none" font-weight="bold" xml:space="preserve">SparkContext</text>
      <rect fill="none" x="374" width="211" height="396" y="135.5" clip-path="url(#clipPath2)"/>
    </g>
  </g>
</svg>
