<?xml version="1.0" encoding="UTF-8"?><svg xmlns="http://www.w3.org/2000/svg" xmlns:xlink="http://www.w3.org/1999/xlink" fill-opacity="1" color-rendering="auto" color-interpolation="auto" text-rendering="auto" stroke="black" stroke-linecap="square" width="565" stroke-miterlimit="10" shape-rendering="auto" stroke-opacity="1" fill="black" stroke-dasharray="none" font-weight="normal" stroke-width="1" height="408" font-family="'Dialog'" font-style="normal" stroke-linejoin="miter" font-size="12px" stroke-dashoffset="0" image-rendering="auto">
  <!--Generated by ySVG 2.5-->
  <defs id="genericDefs"/>
  <g>
    <defs id="defs1">
      <clipPath clipPathUnits="userSpaceOnUse" id="clipPath1">
        <path d="M0 0 L565 0 L565 408 L0 408 L0 0 Z"/>
      </clipPath>
      <clipPath clipPathUnits="userSpaceOnUse" id="clipPath2">
        <path d="M237 123 L802 123 L802 531 L237 531 L237 123 Z"/>
      </clipPath>
    </defs>
    <g fill="white" text-rendering="geometricPrecision" shape-rendering="geometricPrecision" transform="matrix(1,0,0,1,-237,-123)" stroke="white">
      <rect x="625" width="162" height="157" y="138" clip-path="url(#clipPath2)" stroke="none"/>
    </g>
    <g font-size="22px" stroke-linecap="butt" transform="matrix(1,0,0,1,-237,-123)" text-rendering="geometricPrecision" font-family="sans-serif" shape-rendering="geometricPrecision" font-weight="bold" stroke-miterlimit="1.45">
      <text x="632.7866" xml:space="preserve" y="176.2031" clip-path="url(#clipPath2)" stroke="none">Worker Node</text>
      <rect fill="none" x="625" width="162" height="157" y="138" clip-path="url(#clipPath2)"/>
    </g>
    <g fill="white" text-rendering="geometricPrecision" shape-rendering="geometricPrecision" transform="matrix(1,0,0,1,-237,-123)" stroke="white">
      <rect x="252" width="185" height="87" y="260" clip-path="url(#clipPath2)" stroke="none"/>
    </g>
    <g font-size="22px" stroke-linecap="butt" transform="matrix(1,0,0,1,-237,-123)" text-rendering="geometricPrecision" font-family="sans-serif" shape-rendering="geometricPrecision" font-weight="bold" stroke-miterlimit="1.45">
      <text x="257.4399" xml:space="preserve" y="290.0581" clip-path="url(#clipPath2)" stroke="none">Driver Program</text>
      <rect fill="none" x="252" width="185" height="87" y="260" clip-path="url(#clipPath2)"/>
    </g>
    <g fill="rgb(204,204,204)" text-rendering="geometricPrecision" shape-rendering="geometricPrecision" transform="matrix(1,0,0,1,-237,-123)" stroke="rgb(204,204,204)">
      <rect x="267" width="156" height="37" y="296" clip-path="url(#clipPath2)" stroke="none"/>
    </g>
    <g font-size="20px" stroke-linecap="butt" transform="matrix(1,0,0,1,-237,-123)" text-rendering="geometricPrecision" font-family="sans-serif" shape-rendering="geometricPrecision" stroke-miterlimit="1.45">
      <text x="279.4092" xml:space="preserve" y="322.0586" clip-path="url(#clipPath2)" stroke="none">SparkContext</text>
      <rect fill="none" x="267" width="156" height="37" y="296" clip-path="url(#clipPath2)"/>
    </g>
    <g fill="rgb(204,204,204)" text-rendering="geometricPrecision" shape-rendering="geometricPrecision" transform="matrix(1,0,0,1,-237,-123)" stroke="rgb(204,204,204)">
      <rect x="631" width="150" height="105" y="185" clip-path="url(#clipPath2)" stroke="none"/>
    </g>
    <g font-size="20px" stroke-linecap="butt" transform="matrix(1,0,0,1,-237,-123)" text-rendering="geometricPrecision" font-family="sans-serif" shape-rendering="geometricPrecision" stroke-miterlimit="1.45">
      <text x="663.5732" xml:space="preserve" y="218.2695" clip-path="url(#clipPath2)" stroke="none">Executor</text>
      <rect fill="none" x="631" width="150" height="105" y="185" clip-path="url(#clipPath2)"/>
    </g>
    <g fill="white" text-rendering="geometricPrecision" shape-rendering="geometricPrecision" transform="matrix(1,0,0,1,-237,-123)" stroke="white">
      <rect x="649" width="50" height="40" y="234.5" clip-path="url(#clipPath2)" stroke="none"/>
    </g>
    <g font-size="20px" stroke-linecap="butt" transform="matrix(1,0,0,1,-237,-123)" text-rendering="geometricPrecision" font-family="sans-serif" shape-rendering="geometricPrecision" stroke-miterlimit="1.45">
      <text x="651.2119" xml:space="preserve" y="262.0586" clip-path="url(#clipPath2)" stroke="none">Task</text>
      <rect fill="none" x="649" width="50" height="40" y="234.5" clip-path="url(#clipPath2)"/>
    </g>
    <g fill="white" text-rendering="geometricPrecision" shape-rendering="geometricPrecision" transform="matrix(1,0,0,1,-237,-123)" stroke="white">
      <rect x="714.5" width="50" height="40" y="234.5" clip-path="url(#clipPath2)" stroke="none"/>
    </g>
    <g font-size="20px" stroke-linecap="butt" transform="matrix(1,0,0,1,-237,-123)" text-rendering="geometricPrecision" font-family="sans-serif" shape-rendering="geometricPrecision" stroke-miterlimit="1.45">
      <text x="716.7119" xml:space="preserve" y="262.0586" clip-path="url(#clipPath2)" stroke="none">Task</text>
      <rect fill="none" x="714.5" width="50" height="40" y="234.5" clip-path="url(#clipPath2)"/>
    </g>
    <g fill="white" text-rendering="geometricPrecision" shape-rendering="geometricPrecision" transform="matrix(1,0,0,1,-237,-123)" stroke="white">
      <rect x="625" width="162" height="157" y="359" clip-path="url(#clipPath2)" stroke="none"/>
    </g>
    <g font-size="22px" stroke-linecap="butt" transform="matrix(1,0,0,1,-237,-123)" text-rendering="geometricPrecision" font-family="sans-serif" shape-rendering="geometricPrecision" font-weight="bold" stroke-miterlimit="1.45">
      <text x="632.7866" xml:space="preserve" y="397.2031" clip-path="url(#clipPath2)" stroke="none">Worker Node</text>
      <rect fill="none" x="625" width="162" height="157" y="359" clip-path="url(#clipPath2)"/>
    </g>
    <g fill="rgb(204,204,204)" text-rendering="geometricPrecision" shape-rendering="geometricPrecision" transform="matrix(1,0,0,1,-237,-123)" stroke="rgb(204,204,204)">
      <rect x="631" width="150" height="105" y="406" clip-path="url(#clipPath2)" stroke="none"/>
    </g>
    <g font-size="20px" stroke-linecap="butt" transform="matrix(1,0,0,1,-237,-123)" text-rendering="geometricPrecision" font-family="sans-serif" shape-rendering="geometricPrecision" stroke-miterlimit="1.45">
      <text x="663.5732" xml:space="preserve" y="439.2695" clip-path="url(#clipPath2)" stroke="none">Executor</text>
      <rect fill="none" x="631" width="150" height="105" y="406" clip-path="url(#clipPath2)"/>
    </g>
    <g fill="white" text-rendering="geometricPrecision" shape-rendering="geometricPrecision" transform="matrix(1,0,0,1,-237,-123)" stroke="white">
      <rect x="649" width="50" height="40" y="455.5" clip-path="url(#clipPath2)" stroke="none"/>
    </g>
    <g font-size="20px" stroke-linecap="butt" transform="matrix(1,0,0,1,-237,-123)" text-rendering="geometricPrecision" font-family="sans-serif" shape-rendering="geometricPrecision" stroke-miterlimit="1.45">
      <text x="651.2119" xml:space="preserve" y="483.0586" clip-path="url(#clipPath2)" stroke="none">Task</text>
      <rect fill="none" x="649" width="50" height="40" y="455.5" clip-path="url(#clipPath2)"/>
    </g>
    <g fill="white" text-rendering="geometricPrecision" shape-rendering="geometricPrecision" transform="matrix(1,0,0,1,-237,-123)" stroke="white">
      <rect x="714.5" width="50" height="40" y="455.5" clip-path="url(#clipPath2)" stroke="none"/>
    </g>
    <g font-size="20px" stroke-linecap="butt" transform="matrix(1,0,0,1,-237,-123)" text-rendering="geometricPrecision" font-family="sans-serif" shape-rendering="geometricPrecision" stroke-miterlimit="1.45">
      <text x="716.7119" xml:space="preserve" y="483.0586" clip-path="url(#clipPath2)" stroke="none">Task</text>
      <rect fill="none" x="714.5" width="50" height="40" y="455.5" clip-path="url(#clipPath2)"/>
      <path fill="none" d="M430.824 296.1941 L623.176 255.1661" clip-path="url(#clipPath2)"/>
      <path d="M423 297.8629 L435.779 300.2497 L431.802 295.9855 L433.693 290.4696 Z" stroke="none" clip-path="url(#clipPath2)"/>
      <path d="M631 253.4972 L618.2209 251.1105 L622.198 255.3747 L620.307 260.8905 Z" stroke="none" clip-path="url(#clipPath2)"/>
      <path fill="none" d="M398.8091 335.964 L623.5693 425.6191" clip-path="url(#clipPath2)"/>
      <path d="M391.3784 333 L400.6719 342.0902 L399.7379 336.3345 L404.377 332.8019 Z" stroke="none" clip-path="url(#clipPath2)"/>
      <path d="M631 428.5831 L621.7065 419.4929 L622.6405 425.2486 L618.0015 428.7812 Z" stroke="none" clip-path="url(#clipPath2)"/>
      <path fill="none" d="M774 298.0253 L774 397.975" clip-path="url(#clipPath2)"/>
      <path d="M774 290.0253 L769 302.0253 L774 299.0253 L779 302.0253 Z" stroke="none" clip-path="url(#clipPath2)"/>
      <path d="M774 405.975 L779 393.975 L774 396.975 L769 393.975 Z" stroke="none" clip-path="url(#clipPath2)"/>
    </g>
  </g>
</svg>
