<?xml version="1.0" encoding="UTF-8"?><svg xmlns="http://www.w3.org/2000/svg" xmlns:xlink="http://www.w3.org/1999/xlink" fill-opacity="1" color-rendering="auto" color-interpolation="auto" text-rendering="auto" stroke="black" stroke-linecap="square" width="723" stroke-miterlimit="10" shape-rendering="auto" stroke-opacity="1" fill="black" stroke-dasharray="none" font-weight="normal" stroke-width="1" height="273" font-family="'Dialog'" font-style="normal" stroke-linejoin="miter" font-size="12px" stroke-dashoffset="0" image-rendering="auto">
  <!--Generated by ySVG 2.5-->
  <defs id="genericDefs"/>
  <g>
    <defs id="defs1">
      <clipPath clipPathUnits="userSpaceOnUse" id="clipPath1">
        <path d="M0 0 L723 0 L723 273 L0 273 L0 0 Z"/>
      </clipPath>
      <clipPath clipPathUnits="userSpaceOnUse" id="clipPath2">
        <path d="M138 180 L861 180 L861 453 L138 453 L138 180 Z"/>
      </clipPath>
    </defs>
    <g fill="white" text-rendering="geometricPrecision" shape-rendering="geometricPrecision" transform="matrix(1,0,0,1,-138,-180)" stroke="white">
      <rect x="153" width="220" height="49" y="389" clip-path="url(#clipPath2)" stroke="none"/>
    </g>
    <g font-size="20px" stroke-linecap="butt" transform="matrix(1,0,0,1,-138,-180)" text-rendering="geometricPrecision" font-family="sans-serif" shape-rendering="geometricPrecision" stroke-miterlimit="1.45">
      <text x="159.0156" xml:space="preserve" y="421.0586" clip-path="url(#clipPath2)" stroke="none">Standalone Scheduler</text>
      <rect fill="none" x="153" width="220" height="49" y="389" clip-path="url(#clipPath2)"/>
    </g>
    <g fill="white" text-rendering="geometricPrecision" shape-rendering="geometricPrecision" transform="matrix(1,0,0,1,-138,-180)" stroke="white">
      <rect x="626" width="220" height="49" y="389" clip-path="url(#clipPath2)" stroke="none"/>
    </g>
    <g font-size="20px" stroke-linecap="butt" transform="matrix(1,0,0,1,-138,-180)" text-rendering="geometricPrecision" font-family="sans-serif" shape-rendering="geometricPrecision" stroke-miterlimit="1.45">
      <text x="705.4775" xml:space="preserve" y="421.0586" clip-path="url(#clipPath2)" stroke="none">Mesos</text>
      <rect fill="none" x="626" width="220" height="49" y="389" clip-path="url(#clipPath2)"/>
    </g>
    <g fill="rgb(204,204,204)" text-rendering="geometricPrecision" shape-rendering="geometricPrecision" transform="matrix(1,0,0,1,-138,-180)" stroke="rgb(204,204,204)">
      <rect x="153" width="693" height="62" y="313" clip-path="url(#clipPath2)" stroke="none"/>
    </g>
    <g font-size="22px" stroke-linecap="butt" transform="matrix(1,0,0,1,-138,-180)" text-rendering="geometricPrecision" font-family="sans-serif" shape-rendering="geometricPrecision" font-weight="bold" stroke-miterlimit="1.45">
      <text x="437.5659" xml:space="preserve" y="352.3145" clip-path="url(#clipPath2)" stroke="none">Spark Core</text>
      <rect fill="none" x="153" width="693" height="62" y="313" clip-path="url(#clipPath2)"/>
    </g>
    <g fill="white" text-rendering="geometricPrecision" shape-rendering="geometricPrecision" transform="matrix(1,0,0,1,-138,-180)" stroke="white">
      <rect x="153" width="167" height="104" y="195" clip-path="url(#clipPath2)" stroke="none"/>
    </g>
    <g font-size="20px" stroke-linecap="butt" transform="matrix(1,0,0,1,-138,-180)" text-rendering="geometricPrecision" font-family="sans-serif" shape-rendering="geometricPrecision" stroke-miterlimit="1.45">
      <text x="185.0889" xml:space="preserve" y="242.7812" clip-path="url(#clipPath2)" stroke="none">Spark-SQL</text>
      <text x="162.0957" xml:space="preserve" y="266.3359" clip-path="url(#clipPath2)" stroke="none">structured data</text>
      <rect fill="none" x="153" width="167" height="104" y="195" clip-path="url(#clipPath2)"/>
    </g>
    <g fill="white" text-rendering="geometricPrecision" shape-rendering="geometricPrecision" transform="matrix(1,0,0,1,-138,-180)" stroke="white">
      <rect x="338.125" width="208" height="104" y="195" clip-path="url(#clipPath2)" stroke="none"/>
    </g>
    <g font-size="20px" stroke-linecap="butt" transform="matrix(1,0,0,1,-138,-180)" text-rendering="geometricPrecision" font-family="sans-serif" shape-rendering="geometricPrecision" stroke-miterlimit="1.45">
      <text x="362.8428" xml:space="preserve" y="242.7812" clip-path="url(#clipPath2)" stroke="none">Spark Streaming</text>
      <text x="396.7246" xml:space="preserve" y="266.3359" clip-path="url(#clipPath2)" stroke="none">real-time</text>
      <rect fill="none" x="338.125" width="208" height="104" y="195" clip-path="url(#clipPath2)"/>
    </g>
    <g fill="white" text-rendering="geometricPrecision" shape-rendering="geometricPrecision" transform="matrix(1,0,0,1,-138,-180)" stroke="white">
      <rect x="564.25" width="125" height="104" y="195" clip-path="url(#clipPath2)" stroke="none"/>
    </g>
    <g font-size="20px" stroke-linecap="butt" transform="matrix(1,0,0,1,-138,-180)" text-rendering="geometricPrecision" font-family="sans-serif" shape-rendering="geometricPrecision" stroke-miterlimit="1.45">
      <text x="603.6201" xml:space="preserve" y="231.0039" clip-path="url(#clipPath2)" stroke="none">MLib</text>
      <text x="585.8955" xml:space="preserve" y="254.5586" clip-path="url(#clipPath2)" stroke="none">machine</text>
      <text x="587.1357" xml:space="preserve" y="278.1133" clip-path="url(#clipPath2)" stroke="none">learning</text>
      <rect fill="none" x="564.25" width="125" height="104" y="195" clip-path="url(#clipPath2)"/>
    </g>
    <g fill="white" text-rendering="geometricPrecision" shape-rendering="geometricPrecision" transform="matrix(1,0,0,1,-138,-180)" stroke="white">
      <rect x="707" width="139" height="104" y="195" clip-path="url(#clipPath2)" stroke="none"/>
    </g>
    <g font-size="20px" stroke-linecap="butt" transform="matrix(1,0,0,1,-138,-180)" text-rendering="geometricPrecision" font-family="sans-serif" shape-rendering="geometricPrecision" stroke-miterlimit="1.45">
      <text x="740.8994" xml:space="preserve" y="231.0039" clip-path="url(#clipPath2)" stroke="none">GraphX</text>
      <text x="748.1504" xml:space="preserve" y="254.5586" clip-path="url(#clipPath2)" stroke="none">graph</text>
      <text x="723.751" xml:space="preserve" y="278.1133" clip-path="url(#clipPath2)" stroke="none">processing</text>
      <rect fill="none" x="707" width="139" height="104" y="195" clip-path="url(#clipPath2)"/>
    </g>
    <g fill="white" text-rendering="geometricPrecision" shape-rendering="geometricPrecision" transform="matrix(1,0,0,1,-138,-180)" stroke="white">
      <rect x="389.5" width="220" height="49" y="389" clip-path="url(#clipPath2)" stroke="none"/>
    </g>
    <g font-size="20px" stroke-linecap="butt" transform="matrix(1,0,0,1,-138,-180)" text-rendering="geometricPrecision" font-family="sans-serif" shape-rendering="geometricPrecision" stroke-miterlimit="1.45">
      <text x="477.4492" xml:space="preserve" y="421.0586" clip-path="url(#clipPath2)" stroke="none">Yarn</text>
      <rect fill="none" x="389.5" width="220" height="49" y="389" clip-path="url(#clipPath2)"/>
    </g>
  </g>
</svg>
